<svg id="Layer_1" data-name="Layer 1" xmlns="http://www.w3.org/2000/svg" viewBox="0 0 415.01 583.85"><defs><style>.cls-1{fill:#d2edf3;}.cls-1,.cls-2,.cls-3,.cls-4{stroke:#231f20;stroke-miterlimit:10;stroke-width:4px;}.cls-2{fill:#a7a9ac;}.cls-3{fill:#fff;}.cls-4{fill:#231f20;}</style></defs><rect class="cls-1" x="116.39" y="363.35" width="47.37" height="187"/><path class="cls-2" d="M230.14,661.69l-41.5-.24a41.5,41.5,0,0,1,83,.24Z" transform="translate(-90.07 -79.85)"/><rect class="cls-1" x="251.39" y="363.35" width="47.37" height="187"/><path class="cls-2" d="M365.14,661.69l-41.5-.24a41.5,41.5,0,0,1,83,.24Z" transform="translate(-90.07 -79.85)"/><rect class="cls-1" x="62.97" y="239.35" width="289" height="124"/><rect class="cls-1" x="110.5" y="319.25" width="42" height="195.95" transform="translate(171.86 754.94) rotate(-179.85)"/><rect class="cls-1" x="352.07" y="167.34" width="42" height="195.95"/><rect class="cls-1" x="159.85" y="203.6" width="95.45" height="35.74"/><rect class="cls-1" x="105.57" y="75.88" width="204" height="127.73"/><rect class="cls-3" x="148" y="98.69" width="33.57" height="33.57"/><rect class="cls-3" x="233.57" y="98.69" width="33.57" height="33.57"/><path class="cls-3" d="M297.62,230.46l46.75.22a46.75,46.75,0,0,1-93.5-.16Z" transform="translate(-90.07 -79.85)"/><rect class="cls-4" x="229.25" y="263.87" width="93.36" height="74.94"/><line class="cls-2" x1="94.25" y1="266.6" x2="203.24" y2="266.6"/><line class="cls-2" x1="95.13" y1="284.94" x2="204.12" y2="284.94"/><line class="cls-2" x1="95.13" y1="301.35" x2="204.12" y2="301.35"/><line class="cls-2" x1="95.13" y1="318.6" x2="204.12" y2="318.6"/><line class="cls-2" x1="95.13" y1="335.85" x2="204.12" y2="335.85"/><line class="cls-2" x1="207.48" y1="9" x2="207.42" y2="75.88"/><circle class="cls-2" cx="207.45" cy="5.5" r="3.5"/><rect class="cls-2" x="157.69" y="515.2" width="14.26" height="55.19" transform="translate(239.57 1005.75) rotate(180)"/><rect class="cls-2" x="106.79" y="515.2" width="50.43" height="21.75" transform="translate(173.95 972.31) rotate(180)"/><rect class="cls-2" x="92.07" y="515.2" width="14.26" height="55.19" transform="translate(108.33 1005.75) rotate(180)"/><rect class="cls-2" x="488.82" y="191.99" width="14.26" height="55.19" transform="translate(901.83 359.33) rotate(-180)"/><rect class="cls-2" x="437.92" y="225.43" width="50.43" height="21.75" transform="translate(836.21 392.77) rotate(-180)"/><rect class="cls-2" x="423.2" y="191.99" width="14.26" height="55.19" transform="translate(770.59 359.33) rotate(-180)"/></svg>